<mxfile host="65bd71144e">
    <diagram id="0ExJZatV-Nmt1f5UjSIz" name="Page-1">
        <mxGraphModel dx="1612" dy="809" grid="1" gridSize="10" guides="1" tooltips="1" connect="1" arrows="1" fold="1" page="1" pageScale="1" pageWidth="827" pageHeight="1169" math="0" shadow="0">
            <root>
                <mxCell id="0"/>
                <mxCell id="1" parent="0"/>
                <mxCell id="15" style="edgeStyle=none;html=1;" edge="1" parent="1" source="12" target="13">
                    <mxGeometry relative="1" as="geometry"/>
                </mxCell>
                <mxCell id="12" value="Fill In Test" style="html=1;strokeColor=none;fillColor=#0079D6;labelPosition=center;verticalLabelPosition=middle;verticalAlign=top;align=center;fontSize=12;outlineConnect=0;spacingTop=-6;fontColor=#FFFFFF;sketch=0;shape=mxgraph.sitemap.page;" vertex="1" parent="1">
                    <mxGeometry x="1140" y="160" width="120" height="70" as="geometry"/>
                </mxCell>
                <mxCell id="14" style="edgeStyle=none;html=1;" edge="1" parent="1" source="13" target="12">
                    <mxGeometry relative="1" as="geometry"/>
                </mxCell>
                <mxCell id="13" value="My Tests" style="html=1;strokeColor=none;fillColor=#0079D6;labelPosition=center;verticalLabelPosition=middle;verticalAlign=top;align=center;fontSize=12;outlineConnect=0;spacingTop=-6;fontColor=#FFFFFF;sketch=0;shape=mxgraph.sitemap.page;" vertex="1" parent="1">
                    <mxGeometry x="900" y="160" width="120" height="70" as="geometry"/>
                </mxCell>
                <mxCell id="19" value="Student View" style="text;html=1;strokeColor=none;fillColor=none;align=left;verticalAlign=middle;whiteSpace=wrap;rounded=0;fontSize=19;" vertex="1" parent="1">
                    <mxGeometry x="900" y="90" width="170" height="30" as="geometry"/>
                </mxCell>
                <mxCell id="26" value="" style="group" vertex="1" connectable="0" parent="1">
                    <mxGeometry x="40" y="120" width="600" height="360" as="geometry"/>
                </mxCell>
                <mxCell id="3" value="Test List" style="html=1;strokeColor=#2D7600;fillColor=#60a917;labelPosition=center;verticalLabelPosition=middle;verticalAlign=top;align=center;fontSize=12;outlineConnect=0;spacingTop=-6;fontColor=#ffffff;sketch=0;shape=mxgraph.sitemap.page;" vertex="1" parent="26">
                    <mxGeometry x="280" y="50" width="120" height="70" as="geometry"/>
                </mxCell>
                <mxCell id="4" value="Create Test" style="html=1;strokeColor=#2D7600;fillColor=#60a917;labelPosition=center;verticalLabelPosition=middle;verticalAlign=top;align=center;fontSize=12;outlineConnect=0;spacingTop=-6;fontColor=#ffffff;sketch=0;shape=mxgraph.sitemap.page;" vertex="1" parent="26">
                    <mxGeometry y="50" width="120" height="70" as="geometry"/>
                </mxCell>
                <mxCell id="5" value="Edit Test" style="html=1;strokeColor=#2D7600;fillColor=#60a917;labelPosition=center;verticalLabelPosition=middle;verticalAlign=top;align=center;fontSize=12;outlineConnect=0;spacingTop=-6;fontColor=#ffffff;sketch=0;shape=mxgraph.sitemap.page;" vertex="1" parent="26">
                    <mxGeometry y="290" width="120" height="70" as="geometry"/>
                </mxCell>
                <mxCell id="8" style="edgeStyle=none;html=1;" edge="1" parent="26" source="6" target="3">
                    <mxGeometry relative="1" as="geometry"/>
                </mxCell>
                <mxCell id="9" style="edgeStyle=none;html=1;" edge="1" parent="26" source="6" target="5">
                    <mxGeometry relative="1" as="geometry"/>
                </mxCell>
                <mxCell id="6" value="Test Overview" style="html=1;strokeColor=#2D7600;fillColor=#60a917;labelPosition=center;verticalLabelPosition=middle;verticalAlign=top;align=center;fontSize=12;outlineConnect=0;spacingTop=-6;fontColor=#ffffff;sketch=0;shape=mxgraph.sitemap.page;" vertex="1" parent="26">
                    <mxGeometry x="280" y="290" width="120" height="70" as="geometry"/>
                </mxCell>
                <mxCell id="7" style="edgeStyle=none;html=1;" edge="1" parent="26" source="3" target="6">
                    <mxGeometry relative="1" as="geometry"/>
                </mxCell>
                <mxCell id="11" style="edgeStyle=none;html=1;" edge="1" parent="26" source="4" target="6">
                    <mxGeometry relative="1" as="geometry"/>
                </mxCell>
                <mxCell id="16" value="Share Test Modal" style="html=1;strokeColor=none;fillColor=#0079D6;labelPosition=center;verticalLabelPosition=middle;verticalAlign=top;align=center;fontSize=12;outlineConnect=0;spacingTop=-6;fontColor=#FFFFFF;sketch=0;shape=mxgraph.sitemap.page;" vertex="1" parent="26">
                    <mxGeometry x="480" y="170" width="120" height="70" as="geometry"/>
                </mxCell>
                <mxCell id="17" style="edgeStyle=none;html=1;" edge="1" parent="26" source="3" target="16">
                    <mxGeometry relative="1" as="geometry"/>
                </mxCell>
                <mxCell id="18" style="edgeStyle=none;html=1;" edge="1" parent="26" source="6" target="16">
                    <mxGeometry relative="1" as="geometry"/>
                </mxCell>
                <mxCell id="20" value="Test" style="text;html=1;strokeColor=none;fillColor=none;align=left;verticalAlign=middle;whiteSpace=wrap;rounded=0;fontSize=19;" vertex="1" parent="26">
                    <mxGeometry width="50" height="30" as="geometry"/>
                </mxCell>
                <mxCell id="41" value="" style="group" vertex="1" connectable="0" parent="1">
                    <mxGeometry x="-190" y="120" width="120" height="360" as="geometry"/>
                </mxCell>
                <mxCell id="22" value="Grade Test List" style="html=1;strokeColor=none;fillColor=#0079D6;labelPosition=center;verticalLabelPosition=middle;verticalAlign=top;align=center;fontSize=12;outlineConnect=0;spacingTop=-6;fontColor=#FFFFFF;sketch=0;shape=mxgraph.sitemap.page;" vertex="1" parent="41">
                    <mxGeometry y="50" width="120" height="70" as="geometry"/>
                </mxCell>
                <mxCell id="23" value="Grade Test" style="html=1;strokeColor=none;fillColor=#0079D6;labelPosition=center;verticalLabelPosition=middle;verticalAlign=top;align=center;fontSize=12;outlineConnect=0;spacingTop=-6;fontColor=#FFFFFF;sketch=0;shape=mxgraph.sitemap.page;" vertex="1" parent="41">
                    <mxGeometry y="290" width="120" height="70" as="geometry"/>
                </mxCell>
                <mxCell id="24" style="edgeStyle=none;html=1;fontSize=19;" edge="1" parent="41" source="22" target="23">
                    <mxGeometry relative="1" as="geometry"/>
                </mxCell>
                <mxCell id="40" value="Grade" style="text;html=1;strokeColor=none;fillColor=none;align=left;verticalAlign=middle;whiteSpace=wrap;rounded=0;fontSize=19;" vertex="1" parent="41">
                    <mxGeometry width="100" height="30" as="geometry"/>
                </mxCell>
            </root>
        </mxGraphModel>
    </diagram>
</mxfile>